<mxfile host="app.diagrams.net" modified="2023-09-06T03:27:08.918Z" agent="Mozilla/5.0 (Windows NT 10.0; Win64; x64) AppleWebKit/537.36 (KHTML, like Gecko) Chrome/116.0.0.0 Safari/537.36" etag="SCMiOYW0sBoWyARLo3BR" version="21.7.2" type="device">
  <diagram name="Trang-1" id="VsdIG2ENvXlMJ6q9VmSL">
    <mxGraphModel dx="1035" dy="1684" grid="1" gridSize="10" guides="1" tooltips="1" connect="1" arrows="1" fold="1" page="1" pageScale="1" pageWidth="827" pageHeight="1169" math="0" shadow="0">
      <root>
        <mxCell id="0" />
        <mxCell id="1" parent="0" />
        <mxCell id="B4IOqXG4c5Pb16h2BSab-16" style="edgeStyle=orthogonalEdgeStyle;rounded=0;orthogonalLoop=1;jettySize=auto;html=1;" edge="1" parent="1" source="B4IOqXG4c5Pb16h2BSab-9" target="B4IOqXG4c5Pb16h2BSab-10">
          <mxGeometry relative="1" as="geometry" />
        </mxCell>
        <mxCell id="B4IOqXG4c5Pb16h2BSab-9" value="&lt;div style=&quot;color: rgb(212, 212, 212); background-color: rgb(30, 30, 30); font-family: monospace, Consolas, &amp;quot;Courier New&amp;quot;, monospace; font-weight: normal; font-size: 14px; line-height: 19px;&quot;&gt;&lt;div&gt;&lt;span style=&quot;color: #dcdcaa;&quot;&gt;wordle_solver&lt;/span&gt;&lt;span style=&quot;color: #d4d4d4;&quot;&gt;(&lt;/span&gt;&lt;span style=&quot;color: #9cdcfe;&quot;&gt;seed&lt;/span&gt;&lt;span style=&quot;color: #d4d4d4;&quot;&gt;: &lt;/span&gt;&lt;span style=&quot;color: #9cdcfe;&quot;&gt;int&lt;/span&gt;&lt;span style=&quot;color: #d4d4d4;&quot;&gt;, &lt;/span&gt;&lt;span style=&quot;color: #9cdcfe;&quot;&gt;text_size&lt;/span&gt;&lt;span style=&quot;color: #d4d4d4;&quot;&gt;: &lt;/span&gt;&lt;span style=&quot;color: #9cdcfe;&quot;&gt;int&lt;/span&gt;&lt;span style=&quot;color: #d4d4d4;&quot;&gt;) -&amp;gt; &lt;/span&gt;&lt;span style=&quot;color: #4ec9b0;&quot;&gt;str&lt;/span&gt;&lt;/div&gt;&lt;/div&gt;" style="text;whiteSpace=wrap;html=1;" vertex="1" parent="1">
          <mxGeometry x="200" y="340" width="400" height="40" as="geometry" />
        </mxCell>
        <mxCell id="B4IOqXG4c5Pb16h2BSab-18" style="edgeStyle=orthogonalEdgeStyle;rounded=0;orthogonalLoop=1;jettySize=auto;html=1;entryX=0.485;entryY=1.25;entryDx=0;entryDy=0;entryPerimeter=0;" edge="1" parent="1" source="B4IOqXG4c5Pb16h2BSab-10" target="B4IOqXG4c5Pb16h2BSab-11">
          <mxGeometry relative="1" as="geometry" />
        </mxCell>
        <mxCell id="B4IOqXG4c5Pb16h2BSab-25" style="edgeStyle=orthogonalEdgeStyle;rounded=0;orthogonalLoop=1;jettySize=auto;html=1;entryX=0.089;entryY=1;entryDx=0;entryDy=0;entryPerimeter=0;" edge="1" parent="1" source="B4IOqXG4c5Pb16h2BSab-10" target="B4IOqXG4c5Pb16h2BSab-13">
          <mxGeometry relative="1" as="geometry">
            <Array as="points">
              <mxPoint x="110" y="250" />
            </Array>
          </mxGeometry>
        </mxCell>
        <mxCell id="B4IOqXG4c5Pb16h2BSab-26" style="edgeStyle=orthogonalEdgeStyle;rounded=0;orthogonalLoop=1;jettySize=auto;html=1;entryX=0;entryY=0.5;entryDx=0;entryDy=0;" edge="1" parent="1" source="B4IOqXG4c5Pb16h2BSab-10" target="B4IOqXG4c5Pb16h2BSab-14">
          <mxGeometry relative="1" as="geometry">
            <Array as="points">
              <mxPoint x="30" y="250" />
              <mxPoint x="30" y="-80" />
            </Array>
          </mxGeometry>
        </mxCell>
        <mxCell id="B4IOqXG4c5Pb16h2BSab-27" style="edgeStyle=orthogonalEdgeStyle;rounded=0;orthogonalLoop=1;jettySize=auto;html=1;" edge="1" parent="1" source="B4IOqXG4c5Pb16h2BSab-10" target="B4IOqXG4c5Pb16h2BSab-10">
          <mxGeometry relative="1" as="geometry">
            <mxPoint x="730" y="180" as="targetPoint" />
            <Array as="points">
              <mxPoint x="720" y="240" />
              <mxPoint x="720" y="270" />
            </Array>
          </mxGeometry>
        </mxCell>
        <mxCell id="B4IOqXG4c5Pb16h2BSab-10" value="&lt;div style=&quot;color: rgb(212, 212, 212); background-color: rgb(30, 30, 30); font-family: monospace, Consolas, &amp;quot;Courier New&amp;quot;, monospace; font-weight: normal; font-size: 14px; line-height: 19px;&quot;&gt;&lt;div&gt;&lt;span style=&quot;color: #dcdcaa;&quot;&gt;recursive_guess&lt;/span&gt;&lt;span style=&quot;color: #d4d4d4;&quot;&gt;(&lt;/span&gt;&lt;span style=&quot;color: #9cdcfe;&quot;&gt;inital_guess&lt;/span&gt;&lt;span style=&quot;color: #d4d4d4;&quot;&gt;: &lt;/span&gt;&lt;span style=&quot;color: #9cdcfe;&quot;&gt;str&lt;/span&gt;&lt;span style=&quot;color: #d4d4d4;&quot;&gt;, &lt;/span&gt;&lt;span style=&quot;color: #9cdcfe;&quot;&gt;allowed_words_list&lt;/span&gt;&lt;span style=&quot;color: #d4d4d4;&quot;&gt;: &lt;/span&gt;&lt;span style=&quot;color: #9cdcfe;&quot;&gt;list&lt;/span&gt;&lt;span style=&quot;color: #d4d4d4;&quot;&gt;, &lt;/span&gt;&lt;span style=&quot;color: #9cdcfe;&quot;&gt;all_pattern&lt;/span&gt;&lt;span style=&quot;color: #d4d4d4;&quot;&gt;: &lt;/span&gt;&lt;span style=&quot;color: #9cdcfe;&quot;&gt;list&lt;/span&gt;&lt;span style=&quot;color: #d4d4d4;&quot;&gt;, &lt;/span&gt;&lt;span style=&quot;color: #9cdcfe;&quot;&gt;seed&lt;/span&gt;&lt;span style=&quot;color: #d4d4d4;&quot;&gt;: &lt;/span&gt;&lt;span style=&quot;color: #9cdcfe;&quot;&gt;int&lt;/span&gt;&lt;span style=&quot;color: #d4d4d4;&quot;&gt;) -&amp;gt; &lt;/span&gt;&lt;span style=&quot;color: #4ec9b0;&quot;&gt;str&lt;/span&gt;&lt;span style=&quot;color: #dcdcdc;&quot;&gt;:&lt;/span&gt;&lt;/div&gt;&lt;/div&gt;" style="text;whiteSpace=wrap;html=1;" vertex="1" parent="1">
          <mxGeometry x="120" y="230" width="560" height="60" as="geometry" />
        </mxCell>
        <mxCell id="B4IOqXG4c5Pb16h2BSab-19" style="edgeStyle=orthogonalEdgeStyle;rounded=0;orthogonalLoop=1;jettySize=auto;html=1;" edge="1" parent="1" source="B4IOqXG4c5Pb16h2BSab-11" target="B4IOqXG4c5Pb16h2BSab-12">
          <mxGeometry relative="1" as="geometry" />
        </mxCell>
        <mxCell id="B4IOqXG4c5Pb16h2BSab-11" value="&lt;div style=&quot;color: rgb(212, 212, 212); background-color: rgb(30, 30, 30); font-family: monospace, Consolas, &amp;quot;Courier New&amp;quot;, monospace; font-weight: normal; font-size: 14px; line-height: 19px;&quot;&gt;&lt;div&gt;&lt;span style=&quot;color: #dcdcaa;&quot;&gt;get_best_guess&lt;/span&gt;&lt;span style=&quot;color: #d4d4d4;&quot;&gt;(&lt;/span&gt;&lt;span style=&quot;color: #9cdcfe;&quot;&gt;allowed_words_list&lt;/span&gt;&lt;span style=&quot;color: #d4d4d4;&quot;&gt;: &lt;/span&gt;&lt;span style=&quot;color: #9cdcfe;&quot;&gt;list&lt;/span&gt;&lt;span style=&quot;color: #d4d4d4;&quot;&gt;, &lt;/span&gt;&lt;span style=&quot;color: #9cdcfe;&quot;&gt;all_pattern&lt;/span&gt;&lt;span style=&quot;color: #d4d4d4;&quot;&gt;: &lt;/span&gt;&lt;span style=&quot;color: #9cdcfe;&quot;&gt;list&lt;/span&gt;&lt;span style=&quot;color: #d4d4d4;&quot;&gt;)-&amp;gt; &lt;/span&gt;&lt;span style=&quot;color: #4ec9b0;&quot;&gt;list&lt;/span&gt;&lt;span style=&quot;color: #dcdcdc;&quot;&gt;:&lt;/span&gt;&lt;/div&gt;&lt;/div&gt;" style="text;whiteSpace=wrap;html=1;" vertex="1" parent="1">
          <mxGeometry x="130" y="150" width="560" height="20" as="geometry" />
        </mxCell>
        <mxCell id="B4IOqXG4c5Pb16h2BSab-21" style="edgeStyle=orthogonalEdgeStyle;rounded=0;orthogonalLoop=1;jettySize=auto;html=1;" edge="1" parent="1" source="B4IOqXG4c5Pb16h2BSab-12" target="B4IOqXG4c5Pb16h2BSab-13">
          <mxGeometry relative="1" as="geometry" />
        </mxCell>
        <mxCell id="B4IOqXG4c5Pb16h2BSab-12" value="&lt;div style=&quot;color: rgb(212, 212, 212); background-color: rgb(30, 30, 30); font-family: monospace, Consolas, &amp;quot;Courier New&amp;quot;, monospace; font-weight: normal; font-size: 14px; line-height: 19px;&quot;&gt;&lt;div&gt;&lt;span style=&quot;color: #dcdcaa;&quot;&gt;calculate_entropy&lt;/span&gt;&lt;span style=&quot;color: #d4d4d4;&quot;&gt;(&lt;/span&gt;&lt;span style=&quot;color: #9cdcfe;&quot;&gt;word&lt;/span&gt;&lt;span style=&quot;color: #d4d4d4;&quot;&gt;, &lt;/span&gt;&lt;span style=&quot;color: #9cdcfe;&quot;&gt;all_pattern&lt;/span&gt;&lt;span style=&quot;color: #d4d4d4;&quot;&gt;: &lt;/span&gt;&lt;span style=&quot;color: #9cdcfe;&quot;&gt;list&lt;/span&gt;&lt;span style=&quot;color: #d4d4d4;&quot;&gt;, &lt;/span&gt;&lt;span style=&quot;color: #9cdcfe;&quot;&gt;allowed_words_list&lt;/span&gt;&lt;span style=&quot;color: #d4d4d4;&quot;&gt;: &lt;/span&gt;&lt;span style=&quot;color: #9cdcfe;&quot;&gt;list&lt;/span&gt;&lt;span style=&quot;color: #d4d4d4;&quot;&gt;)-&amp;gt; &lt;/span&gt;&lt;span style=&quot;color: #4ec9b0;&quot;&gt;float&lt;/span&gt;&lt;span style=&quot;color: #dcdcdc;&quot;&gt;:&lt;/span&gt;&lt;/div&gt;&lt;/div&gt;" style="text;whiteSpace=wrap;html=1;" vertex="1" parent="1">
          <mxGeometry x="130" y="60" width="560" height="50" as="geometry" />
        </mxCell>
        <mxCell id="B4IOqXG4c5Pb16h2BSab-22" style="edgeStyle=orthogonalEdgeStyle;rounded=0;orthogonalLoop=1;jettySize=auto;html=1;" edge="1" parent="1" source="B4IOqXG4c5Pb16h2BSab-13" target="B4IOqXG4c5Pb16h2BSab-14">
          <mxGeometry relative="1" as="geometry" />
        </mxCell>
        <mxCell id="B4IOqXG4c5Pb16h2BSab-13" value="&lt;div style=&quot;color: rgb(212, 212, 212); background-color: rgb(30, 30, 30); font-family: monospace, Consolas, &amp;quot;Courier New&amp;quot;, monospace; font-weight: normal; font-size: 14px; line-height: 19px;&quot;&gt;&lt;div&gt;&lt;span style=&quot;color: #dcdcaa;&quot;&gt;get_the_remain_words_list&lt;/span&gt;&lt;span style=&quot;color: #d4d4d4;&quot;&gt;(&lt;/span&gt;&lt;span style=&quot;color: #9cdcfe;&quot;&gt;guess_word&lt;/span&gt;&lt;span style=&quot;color: #d4d4d4;&quot;&gt;: &lt;/span&gt;&lt;span style=&quot;color: #9cdcfe;&quot;&gt;str&lt;/span&gt;&lt;span style=&quot;color: #d4d4d4;&quot;&gt;, &lt;/span&gt;&lt;span style=&quot;color: #9cdcfe;&quot;&gt;pattern&lt;/span&gt;&lt;span style=&quot;color: #d4d4d4;&quot;&gt;: &lt;/span&gt;&lt;span style=&quot;color: #9cdcfe;&quot;&gt;list&lt;/span&gt;&lt;span style=&quot;color: #d4d4d4;&quot;&gt;, &lt;/span&gt;&lt;span style=&quot;color: #9cdcfe;&quot;&gt;allowed_words_list&lt;/span&gt;&lt;span style=&quot;color: #d4d4d4;&quot;&gt;: &lt;/span&gt;&lt;span style=&quot;color: #9cdcfe;&quot;&gt;list&lt;/span&gt;&lt;span style=&quot;color: #d4d4d4;&quot;&gt;) -&amp;gt; &lt;/span&gt;&lt;span style=&quot;color: #4ec9b0;&quot;&gt;list&lt;/span&gt;&lt;span style=&quot;color: #dcdcdc;&quot;&gt;:&lt;/span&gt;&lt;/div&gt;&lt;/div&gt;" style="text;whiteSpace=wrap;html=1;" vertex="1" parent="1">
          <mxGeometry x="45" y="-20" width="730" height="30" as="geometry" />
        </mxCell>
        <mxCell id="B4IOqXG4c5Pb16h2BSab-14" value="&lt;div style=&quot;color: rgb(212, 212, 212); background-color: rgb(30, 30, 30); font-family: monospace, Consolas, &amp;quot;Courier New&amp;quot;, monospace; font-weight: normal; font-size: 14px; line-height: 19px;&quot;&gt;&lt;div&gt;&lt;span style=&quot;color: #569cd6;&quot;&gt;def&lt;/span&gt;&lt;span style=&quot;color: #d4d4d4;&quot;&gt; &lt;/span&gt;&lt;span style=&quot;color: #dcdcaa;&quot;&gt;check_answer&lt;/span&gt;&lt;span style=&quot;color: #d4d4d4;&quot;&gt;(&lt;/span&gt;&lt;span style=&quot;color: #9cdcfe;&quot;&gt;guess_word&lt;/span&gt;&lt;span style=&quot;color: #d4d4d4;&quot;&gt;: &lt;/span&gt;&lt;span style=&quot;color: #9cdcfe;&quot;&gt;str&lt;/span&gt;&lt;span style=&quot;color: #d4d4d4;&quot;&gt;, &lt;/span&gt;&lt;span style=&quot;color: #9cdcfe;&quot;&gt;seed&lt;/span&gt;&lt;span style=&quot;color: #d4d4d4;&quot;&gt;: &lt;/span&gt;&lt;span style=&quot;color: #9cdcfe;&quot;&gt;int&lt;/span&gt;&lt;span style=&quot;color: #d4d4d4;&quot;&gt;, &lt;/span&gt;&lt;span style=&quot;color: #9cdcfe;&quot;&gt;text_size&lt;/span&gt;&lt;span style=&quot;color: #d4d4d4;&quot;&gt;: &lt;/span&gt;&lt;span style=&quot;color: #9cdcfe;&quot;&gt;int&lt;/span&gt;&lt;span style=&quot;color: #d4d4d4;&quot;&gt;) -&amp;gt; &lt;/span&gt;&lt;span style=&quot;color: #4ec9b0;&quot;&gt;list&lt;/span&gt;&lt;span style=&quot;color: #dcdcdc;&quot;&gt;:&lt;/span&gt;&lt;/div&gt;&lt;/div&gt;" style="text;whiteSpace=wrap;html=1;" vertex="1" parent="1">
          <mxGeometry x="130" y="-100" width="560" height="40" as="geometry" />
        </mxCell>
      </root>
    </mxGraphModel>
  </diagram>
</mxfile>
